# xmcd
#
# Track frame offsets:
# 150
# 8115
# 17454
# 38274
# 57135
# 74242
# 90615
# 108476
# 122308
# 136847
# 147586
# 169960
#
# Disc length: 2447 seconds
#
#
# Revision: 0
# Processed by: cddbd v1.5.1PL0 Copyright (c) Steve Scherf et al.
# Submitted via: FreeRIP 2.92 
#
DISCID=9a098d0c
DTITLE=Maquiladora - The Lost Works Of Eunice Phelps
DYEAR=1998
DGENRE=Space
TTITLE0=Spinal Meningitis
TTITLE1=Two Minute Hour
TTITLE2=Mercy Visions
TTITLE3=Double Barn Doors
TTITLE4=First Spring
TTITLE5=In The Name Of The Song Of The Father
TTITLE6=Mayday
TTITLE7=Haamaramaraaa
TTITLE8=Mercury Sounds
TTITLE9=The House Of Healing
TTITLE10=Black Spring
TTITLE11=Spinal Meningitis Reprise (She's A Diva)
EXTD=
EXTT0=
EXTT1=
EXTT2=
EXTT3=
EXTT4=
EXTT5=
EXTT6=
EXTT7=
EXTT8=
EXTT9=
EXTT10=
EXTT11=
PLAYORDER=
